<svg width="12" height="12" viewBox="0 0 12 12" fill="none" xmlns="http://www.w3.org/2000/svg">
<mask id="mask0_2370_100" style="mask-type:alpha" maskUnits="userSpaceOnUse" x="0" y="0" width="12" height="12">
<circle cx="6" cy="6" r="6" fill="#C4C4C4"/>
</mask>
<g mask="url(#mask0_2370_100)">
<path d="M12 0H0V12H12V0Z" fill="#F1F8FE"/>
<path d="M12 -1H0V1H12V-1Z" fill="#F5222D"/>
<path d="M12 3H0V5H12V3Z" fill="#F5222D"/>
<path d="M7 0H0V5H7V0Z" fill="#2F54EB"/>
<path d="M12 7H0V9H12V7Z" fill="#F5222D"/>
<path d="M12 11H0V13H12V11Z" fill="#F5222D"/>
<circle cx="5.5" cy="1.5" r="0.5" fill="#F1F8FE"/>
<circle cx="3.5" cy="1.5" r="0.5" fill="#F1F8FE"/>
<circle cx="1.5" cy="1.5" r="0.5" fill="#F1F8FE"/>
<circle cx="5.5" cy="3.5" r="0.5" fill="#F1F8FE"/>
<circle cx="3.5" cy="3.5" r="0.5" fill="#F1F8FE"/>
<circle cx="1.5" cy="3.5" r="0.5" fill="#F1F8FE"/>
</g>
</svg>
