<svg width="16" height="16" fill="none" xmlns="http://www.w3.org/2000/svg"><mask id="a" style="mask-type:alpha" maskUnits="userSpaceOnUse" x="2" y="2" width="12" height="12"><circle cx="8" cy="8" r="6" fill="#C4C4C4"/></mask><g mask="url(#a)"><path d="M14 2H2v12h12V2Z" fill="#2F54EB"/><path fill-rule="evenodd" clip-rule="evenodd" d="M8.3 4.5 8 4l-.3.5-.6.2.3.5v.6l.6-.2.6.2v-.6l.3-.5-.6-.2Zm2.2 1-.3-.6-.4.5-.5.2.3.5v.6l.6-.2.5.2v-.6l.4-.5-.6-.2Zm.6 1.6.3.5.6.2-.4.5v.6l-.5-.2-.6.2v-.6l-.3-.5.5-.2.4-.5Zm-.6 2.7-.3-.5-.4.5-.5.2.3.5v.6l.6-.2.5.2v-.6l.4-.5-.6-.2Zm-2.5.4.3.5.6.2-.3.5v.6l-.6-.2-.6.2v-.6l-.3-.5.6-.2.3-.5Zm-1.8-.4-.4-.5-.3.5-.6.2.4.5v.6l.5-.2.6.2v-.6l.3-.5-.5-.2ZM4.9 7l.4.5.5.2-.3.5v.6l-.6-.2-.6.2v-.6L4 7.8l.6-.2.3-.5Zm1.3-1.7L5.8 5l-.3.5-.6.2.4.5v.6l.5-.2.6.2v-.6l.3-.5-.5-.2Z" fill="#FADB14"/></g></svg>