<svg width="16" height="16" fill="none" xmlns="http://www.w3.org/2000/svg"><mask id="a" style="mask-type:alpha" maskUnits="userSpaceOnUse" x="2" y="2" width="12" height="12"><circle cx="8" cy="8" r="6" fill="#C4C4C4"/></mask><g mask="url(#a)"><path d="M14 2H2v12h12V2Z" fill="#F5222D"/></g><path fill-rule="evenodd" clip-rule="evenodd" d="M6.9 6.2a2.4 2.4 0 0 1 3-.3 2.8 2.8 0 1 0 0 3.9c-.4.3-.9.4-1.4.4a2.4 2.4 0 0 1-1.6-4Zm4 1.6c0 .6-.5 1-1 1a1 1 0 0 1-1-1c0-.5.5-1 1-1s1 .5 1 1Z" fill="#F1F8FE"/></svg>