<svg width="154" height="20" fill="none" xmlns="http://www.w3.org/2000/svg"><path d="M9.7 10.1V1.8H5.5V.1h10.2v1.7h-4.2v8.3H9.7Zm-9.7 0V.1h1.8v10H0Z" fill="#727271"/><path d="M47.2 9.2c-.7-.7-.8-1.6-.8-4 0-2.6.1-3.5.8-4.2.8-1 1.6-1 5-1 3.3 0 4.2 0 5 1 .6.7.7 1.6.7 4 0 2.6 0 3.5-.7 4.2-.8.9-1.7 1-5 1-3.4 0-4.2-.1-5-1Zm1.4-7c-.2.3-.3 1-.3 2.9 0 2 0 2.6.3 2.9.3.3.7.4 3.6.4 2.8 0 3.3 0 3.6-.4.2-.3.3-1 .3-2.9 0-2 0-2.6-.3-2.9-.3-.3-1-.4-3.6-.4s-3.3 0-3.6.4Zm-28.8 7c-.7-.7-.8-1.6-.8-4.1 0-2.5.1-3.4.8-4.1.8-1 1.6-1 5.3-1 2.5 0 3.4 0 4.1.6a3 3 0 0 1 1 2.6v.4h-1.8v-.4c0-.8 0-1-.2-1-.2-.4-.5-.4-2.7-.4-3 0-3.8 0-4.2.3-.3.3-.4.8-.4 3 0 2 0 2.6.3 2.9.3.3.8.4 3.2.4 3.2 0 3.5 0 3.8-.4.2-.3.3-.5.3-1.5h-4.4V4.8h6.2v2.4a2.8 2.8 0 0 1-1.5 2.6c-.6.3-1.4.4-4 .4-3.4 0-4.2 0-5-1Zm71.1.9V.1h1.8v8.3h6.6V10H91Zm-4.9 0-1-2h-6.4l-1 2h-2l5.2-10h2l5.3 10h-2Zm-6.5-3.7H84L81.8 2l-2.3 4.3ZM62.3 10V.1h7a3 3 0 0 1 2.4.7 3 3 0 0 1 .7 2.2 2.2 2.2 0 0 1-.6 1.8 2.4 2.4 0 0 1 1 2.2 3.1 3.1 0 0 1-.8 2.3 3 3 0 0 1-2.3.8h-7.4ZM64 8.4h5.2c1.4 0 1.6-.3 1.6-1.4 0-1 0-1.3-1.9-1.3h-5v2.7ZM64 4h4.5c1.3 0 1.5 0 1.7-.2 0 0 .3-.2.3-1s-.2-1-1.4-1h-5.1V4Zm-29.5 6V.1h1.8v8.3H43V10h-8.4Z" fill="#1D7DED"/><path d="M124.9 9.2c-.7-.7-.8-1.6-.8-4 0-2.6.1-3.5.8-4.2.8-1 1.6-1 5-1 3.3 0 4.2 0 5 1 .6.7.7 1.6.7 4 0 2.6 0 3.5-.7 4.2-.8.9-1.7 1-5 1-3.4 0-4.2-.1-5-1Zm1.4-7c-.2.3-.3 1-.3 2.9 0 2 0 2.6.3 2.9.3.3.7.4 3.6.4 2.8 0 3.3 0 3.6-.4.2-.3.3-1 .3-2.9 0-2 0-2.6-.3-2.9-.3-.3-1-.4-3.6-.4s-3.3 0-3.6.4Zm-16.2 7c-.6-.7-.7-1.6-.7-4.1 0-2.8.1-3.8 1.2-4.5.7-.5 1.6-.6 5-.6 2.2 0 3 .1 3.5.6.8.6 1 1.4 1 2.8v.4h-1.8v-.6c0-1.3 0-1.4-3.5-1.4-1.7 0-2.8 0-3.2.3-.4.4-.4 1.4-.4 3 0 2 .1 2.6.4 2.9.2.3.7.4 3 .4 3.8 0 3.8-.1 3.8-1.3v-.9h1.7V7c.1.8 0 1.6-.5 2.2a2.3 2.3 0 0 1-1.7.9l-3 .1c-3 0-4-.1-4.8-1Zm42 .9V2.8l-4.5 7.3h-1.2l-4.6-7.3v7.3H140V.1h2.2l4.8 7.6 4.8-7.6h2.1v10h-1.7Zm-49.1 0V7.7h2v2.4h-2ZM94.3 19.7a1.3 1.3 0 0 1-.4-1v-1.4c0-1.1 0-1.6.3-1.9a1.4 1.4 0 0 1 1-.4h1.4c1.4 0 1.8 0 2 .5.3.3.4.6.4 1v1c0 1.3-.1 1.7-.4 2a1.4 1.4 0 0 1-1 .5h-1.4c-1.2 0-1.5 0-1.9-.3Zm.4-2.2c0 1 0 1.3.3 1.4.2.1.4.2 1.5.2 1 0 1.3 0 1.4-.3.1-.2.2-.5.2-1.3 0-1.6 0-1.6-1.7-1.6s-1.7 0-1.7 1.6Zm-58.9 2.3a1.1 1.1 0 0 1-.6-1v-1.3c0-1.3 0-1.7.3-2a1 1 0 0 1 .6-.4l2-.1c1 0 1.5 0 1.7.4l.3 1.2h-.9l-.1-.5c-.2-.2-.4-.2-1.1-.2-1.4 0-1.7 0-1.8.2-.2.4-.2.9-.2 1.3 0 1 0 1.3.2 1.5.2.1.4.2 1.5.2s1.3 0 1.4-.3c.1-.3.2-.5.1-.7h-1.7v-.8h2.6v.5c0 .6 0 1-.2 1.6a1 1 0 0 1-.6.5h-1.7a5 5 0 0 1-1.8 0Zm114 .1V15h4.2v.9h-3.3V17h3.1v.7h-3v1.3h3.2v.8h-4.2Zm-8.4 0V15h3.2a1.7 1.7 0 0 1 1.5.6c.3.6.4 1.3.3 2 0 1-.1 1.6-.4 2a1.6 1.6 0 0 1-1.3.3h-3.3Zm.9-.9h2.2l.7-.1c.2-.2.3-.5.3-1.3 0-1.4-.2-1.6-1-1.6h-2.2v3Zm-5.4 1v-5h.9v5h-.9Zm-6.1 0-1.2-4-1.2 4h-1.2l-1.6-5h1l1.2 4 1.3-4h1l1.3 4 1.3-4h1l-1.7 5h-1.2Zm-13.2 0v-5h3.2a1.7 1.7 0 0 1 1.5.6c.3.6.4 1.3.3 2a3 3 0 0 1-.4 2 1.6 1.6 0 0 1-1.3.3h-3.3Zm.9-1h2.2l.7-.1c.2-.2.3-.5.3-1.3 0-1.4-.2-1.6-1-1.6h-2.2v3Zm-7.8 1v-5h.9v4h2.8v1h-3.7Zm-4.5 0v-.8c0-.7-.1-.8-.7-.8h-2.2v1.5h-.8V15h3.2c.7 0 1 .1 1.2.4l.3 1.2c0 .3 0 .7-.2 1a.7.7 0 0 1-.5.3c.5 0 .6.3.6 1v1h-.9Zm-2.9-2.5h2.2c.6 0 .8-.1.8-.7 0-.7-.1-.9-.8-.9h-2.2v1.6ZM88 19.9l-1.2-3.8-1.1 3.8h-1.2L82.7 15h1l1.3 4 1.2-4h1l1.3 4 1.4-4h.9L89 20h-1.2Zm-13.2 0v-1.1h1v1.1h-1Zm-5.1 0v-4h-1.8V15h4.5v1h-1.8v4h-.9Zm-6 0V15h1v5h-1Zm-12.5 0V15h3.3a1.7 1.7 0 0 1 1.4.6c.3.6.4 1.3.4 2a3 3 0 0 1-.4 2 1.6 1.6 0 0 1-1.4.3h-3.3Zm1-.9h2.2l.6-.1c.3-.2.4-.5.4-1.3 0-1.4-.2-1.6-1-1.6H52v3Zm-8.5 1v-5h4.1v.9h-3.2V17h3v.7h-3v1.3h3.2v.8h-4.1Zm-12.4 0-.4-1H28l-.4 1h-1l2.2-5H30l2.2 5h-1Zm-2.8-1.8h2l-1-2.4-1 2.4ZM22 19.9l-3-4 .1 4h-.9V15h1.4l3 4.1v-4h.8v4.8H22Zm-7.8 0-.4-1H11l-.4 1h-1l2.2-4.9H13l2.2 5h-1Zm-2.8-1.7h2l-1-2.4-1 2.4Zm-5.9 1.7v-4l-2 4h-.7l-2-4v4H0V15h1.4l1.8 3.7L5 15h1.4v5h-.9Z" fill="#727271"/></svg>