<svg width="154" height="20" viewBox="0 0 154 20" fill="none" xmlns="http://www.w3.org/2000/svg">
<path d="M9.71818 10.1013V1.83293H5.49918V0.0957031H15.7406V1.83293H11.5276V10.1013H9.71818ZM0 10.1013V0.0957031H1.80943V10.1013H0Z" fill="white"/>
<path d="M47.199 9.21689C46.542 8.45923 46.4391 7.57163 46.4391 5.10572C46.4391 2.61883 46.5449 1.72323 47.199 0.980563C47.9819 0.0849621 48.7967 0 52.2438 0C55.5392 0 56.3939 0.091959 57.1818 0.979563C57.8359 1.73723 57.9417 2.62483 57.9417 5.08773C57.9417 7.55064 57.8359 8.45623 57.1818 9.21289C56.4069 10.1005 55.5451 10.1925 52.1889 10.1925C48.8327 10.1925 47.9779 10.1045 47.199 9.21689ZM48.625 2.19902C48.3644 2.49889 48.2905 3.1506 48.2905 5.09773C48.2905 7.04486 48.3624 7.69657 48.623 7.99644C48.9156 8.33828 49.303 8.42225 52.1909 8.42225C55.0139 8.42225 55.4643 8.33729 55.7638 7.99644C56.0245 7.69657 56.0984 7.04886 56.0984 5.10772C56.0984 3.16659 56.0245 2.50888 55.7638 2.20902C55.4812 1.87117 54.7603 1.78221 52.2438 1.78221C49.6256 1.77521 48.9186 1.86017 48.625 2.19902ZM19.8 9.21689C19.1449 8.45923 19.0391 7.57163 19.0391 5.10472C19.0391 2.63782 19.1449 1.74022 19.8 0.982562C20.5849 0.0809639 21.3877 0 25.1394 0C27.6488 0 28.4866 0.0849621 29.2116 0.633718C29.5773 0.943989 29.8609 1.33972 30.0373 1.78587C30.2138 2.23203 30.2776 2.71484 30.2232 3.19158L30.2371 3.61039H28.4397L28.4257 3.21657C28.4017 2.38494 28.3558 2.26199 28.237 2.14205C27.9514 1.84218 27.6868 1.77521 25.4909 1.77521C22.4362 1.77521 21.6543 1.83818 21.3198 2.10306C21.0033 2.35995 20.8904 2.85373 20.8904 5.10173C20.8904 7.02887 20.9643 7.70057 21.221 7.98744C21.4996 8.3113 21.9949 8.41725 24.4164 8.41725C27.5769 8.41725 27.9114 8.34728 28.2 7.98744C28.3997 7.74755 28.4716 7.52265 28.5096 6.48811H24.0729V4.75588H30.305V5.1607C30.3297 5.86579 30.3123 6.57173 30.2531 7.27476C30.2819 7.79343 30.1638 8.30969 29.9124 8.76414C29.661 9.2186 29.2866 9.59277 28.8321 9.84361C28.223 10.1255 27.4341 10.1955 24.8378 10.1955C21.3937 10.1955 20.5809 10.1115 19.8 9.21689ZM90.9428 10.1015V0.0999555H92.7482V8.36427H99.3389V10.1015H90.9428ZM86.0438 10.1015L84.9453 8.03242H78.6323L77.5339 10.1005H75.5058L80.8382 0.0999555H82.7355L88.0639 10.1025L86.0438 10.1015ZM79.54 6.35317H84.0416L81.7888 2.13505L79.54 6.35317ZM62.2646 10.1015V0.0999555H69.3245C69.7489 0.0312784 70.183 0.0542583 70.5977 0.167353C71.0125 0.280447 71.3982 0.481038 71.7291 0.755663C71.989 1.05527 72.1851 1.40485 72.3053 1.78298C72.4255 2.16111 72.4673 2.55982 72.4281 2.95468C72.4652 3.28097 72.4298 3.61144 72.3245 3.92246C72.2192 4.23348 72.0466 4.51738 71.819 4.75388C72.1459 5.01321 72.4009 5.35203 72.5598 5.73804C72.7187 6.12404 72.7762 6.54435 72.7267 6.9589C72.7719 7.37831 72.7322 7.80254 72.6101 8.20628C72.4879 8.61002 72.2858 8.985 72.0157 9.30885C71.7063 9.59706 71.3392 9.81615 70.9387 9.9516C70.5383 10.087 70.1137 10.1358 69.693 10.0945L62.2646 10.1015ZM64.075 8.36427H69.2517C70.7495 8.36427 70.8883 8.12838 70.8883 7.02187C70.8883 5.95834 70.8244 5.73245 69.027 5.73245H64.075V8.36427ZM64.075 4.05219H68.6245C69.8848 4.05219 70.1454 4.01321 70.3321 3.88627C70.392 3.84429 70.5878 3.71035 70.5878 2.97068C70.5878 2.09007 70.405 1.83318 69.2117 1.83318H64.075V4.05219ZM34.579 10.1005V0.0999555H36.3884V8.36427H42.979V10.1015L34.579 10.1005Z" fill="white"/>
<path d="M124.892 9.21714C124.237 8.45947 124.132 7.56787 124.132 5.10597C124.132 2.61908 124.237 1.72348 124.892 0.980807C125.671 0.0812081 126.49 0.0012437 129.933 0.0012437C133.234 0.0012437 134.086 0.0932027 134.87 0.980807C135.525 1.73847 135.63 2.62607 135.63 5.08898C135.63 7.55188 135.525 8.45748 134.87 9.21414C134.095 10.1017 133.234 10.1937 129.877 10.1937C126.52 10.1937 125.663 10.1047 124.892 9.21714ZM126.317 2.19926C126.056 2.49913 125.978 3.15084 125.978 5.09797C125.978 7.0451 126.052 7.69681 126.314 7.99668C126.607 8.33853 126.993 8.42249 129.883 8.42249C132.702 8.42249 133.151 8.33753 133.451 7.99668C133.711 7.69681 133.785 7.0491 133.785 5.10797C133.785 3.16683 133.711 2.50913 133.451 2.20926C133.169 1.87141 132.452 1.78245 129.932 1.78245C127.317 1.77545 126.606 1.86042 126.317 2.19926ZM110.148 9.21714C109.493 8.47647 109.386 7.58586 109.386 5.10497C109.386 2.25124 109.545 1.30666 110.584 0.584984C111.348 0.0532205 112.209 0.000244141 115.564 0.000244141C117.77 0.000244141 118.539 0.134184 119.133 0.612971C119.865 1.17272 120.02 1.98736 120.055 3.38574L120.065 3.80155H118.273V3.16383C118.273 1.90939 118.273 1.77545 114.842 1.77545C113.076 1.77545 112.008 1.77545 111.619 2.14229C111.229 2.50913 111.239 3.47769 111.239 5.10497C111.239 7.0461 111.313 7.69482 111.574 7.99368C111.835 8.29255 112.321 8.41949 114.632 8.41949C118.352 8.41949 118.352 8.27156 118.352 7.13007V6.19748H120.131V6.99713C120.231 7.7834 120.05 8.57986 119.619 9.24512C119.408 9.50517 119.142 9.71594 118.84 9.86283C118.539 10.0097 118.209 10.0892 117.874 10.0957C117.339 10.1417 115.892 10.1957 114.808 10.1957C111.813 10.1957 110.895 10.0728 110.148 9.21714ZM152.156 10.1017V2.81499L147.553 10.1007H146.369L141.766 2.81499V10.1007H139.956V0.1002H140.954V0.0112392L141.008 0.1002H142.194L146.978 7.65683L151.779 0.1002H152.912L152.969 0.0122388V0.1002H153.968V10.1007L152.156 10.1017ZM102.995 10.1007V7.74379H105.065V10.1007H102.995Z" fill="white"/>
<path d="M94.3319 19.7189C94.1848 19.5967 94.066 19.4441 93.9834 19.2715C93.9008 19.099 93.8565 18.9106 93.8535 18.7193C93.8104 18.2569 93.7947 17.7923 93.8066 17.328C93.8066 16.1795 93.8945 15.7287 94.1721 15.4148C94.301 15.286 94.4543 15.1843 94.6231 15.1156C94.7918 15.047 94.9725 15.0128 95.1547 15.015C95.3544 14.994 95.9326 14.98 96.6436 14.98C98.0166 14.98 98.3821 15.068 98.6707 15.4658C98.8607 15.778 98.9606 16.1368 98.9593 16.5023C98.9772 16.7312 98.9832 16.9951 98.9832 17.5419C98.9832 18.7713 98.8834 19.2411 98.5928 19.571C98.4622 19.6997 98.307 19.8008 98.1364 19.8679C97.9658 19.9351 97.7834 19.967 97.6002 19.9618C97.4135 19.9758 96.7095 19.9898 96.1672 19.9898C94.9819 19.9898 94.6654 19.9478 94.3319 19.7189ZM94.7193 17.4889C94.7193 18.4475 94.7792 18.7533 94.9929 18.8943C95.2066 19.0352 95.3923 19.0632 96.5028 19.0632C97.5014 19.0632 97.752 19.0142 97.9118 18.7923C98.0446 18.6094 98.0845 18.2925 98.0845 17.4609C98.0845 15.9216 98.0735 15.9076 96.3979 15.9076C94.7423 15.9066 94.7193 15.9276 94.7193 17.4889ZM35.849 19.8209C35.6619 19.731 35.5029 19.5915 35.3894 19.4176C35.2758 19.2437 35.212 19.0419 35.2049 18.8343C35.1452 18.4039 35.1228 17.9691 35.138 17.5349C35.138 16.2355 35.2049 15.8266 35.4556 15.4808C35.5376 15.3701 35.6414 15.2774 35.7606 15.2085C35.8798 15.1395 36.0118 15.0958 36.1486 15.08C36.7817 14.9924 37.4213 14.9613 38.0599 14.987C39.1923 14.987 39.6007 15.087 39.8433 15.4418C40.0403 15.7958 40.1272 16.2006 40.093 16.6043H39.2172C39.2102 16.2974 39.1783 16.1785 39.0694 16.0685C38.9177 15.9136 38.7209 15.8856 37.964 15.8856C36.566 15.8856 36.3483 15.9136 36.1965 16.1425C36.0365 16.5435 35.9812 16.9786 36.0358 17.4069C36.0358 18.3655 36.0817 18.6964 36.2475 18.8723C36.4132 19.0482 36.6349 19.1012 37.6874 19.1012C38.8388 19.1012 38.9616 19.0692 39.1334 18.7523C39.2247 18.5311 39.2611 18.291 39.2392 18.0526H37.5127V17.312H40.109V17.8337C40.1582 18.3561 40.097 18.883 39.9292 19.3801C39.8739 19.5083 39.7898 19.6221 39.6835 19.7126C39.5772 19.8031 39.4515 19.8678 39.3161 19.9018C38.753 19.995 38.1807 20.0205 37.6115 19.9778C37.0194 20.0326 36.4222 19.9794 35.849 19.8209ZM149.843 19.9408V15.029H153.965V15.8926H150.727V17.0551H153.807V17.8267H150.727V19.0782H154V19.9418L149.843 19.9408ZM141.368 19.9408V15.029H144.585C144.857 14.9928 145.133 15.0229 145.39 15.1167C145.648 15.2105 145.879 15.3653 146.063 15.5677C146.359 16.1804 146.474 16.865 146.395 17.5409C146.395 18.6404 146.286 19.1751 145.986 19.521C145.813 19.6822 145.606 19.8032 145.38 19.8756C145.155 19.948 144.916 19.9699 144.681 19.9398L141.368 19.9408ZM142.267 19.0412H144.487C144.726 19.0587 144.966 19.0022 145.173 18.8793C145.398 18.7243 145.489 18.3505 145.489 17.5898C145.489 16.2295 145.324 15.9556 144.491 15.9556H142.271L142.267 19.0412ZM136.902 19.9408V15.029H137.801V19.9408H136.902ZM130.782 19.9408L129.61 16.0795L128.427 19.9378H127.25L125.583 15.029H126.508L127.828 19.0202L129.08 15.029H130.15L131.388 19.0202L132.731 15.029H133.649L131.951 19.9398L130.782 19.9408ZM117.565 19.9408V15.029H120.786C121.058 14.9926 121.334 15.0226 121.592 15.1165C121.849 15.2103 122.08 15.3651 122.265 15.5677C122.561 16.1805 122.675 16.8651 122.596 17.5409C122.694 18.2284 122.55 18.9287 122.187 19.521C122.014 19.6822 121.807 19.8032 121.581 19.8756C121.356 19.948 121.117 19.9699 120.882 19.9398L117.565 19.9408ZM118.464 19.0412H120.679C120.919 19.0599 121.159 19.0033 121.365 18.8793C121.594 18.7243 121.687 18.3505 121.687 17.5898C121.687 16.2295 121.517 15.9556 120.679 15.9556H118.464V19.0412ZM110.675 19.9408V15.029H111.573V19.0212H114.402V19.9408H110.675ZM106.222 19.9408V19.2041C106.212 18.5344 106.088 18.4045 105.504 18.4045H103.347V19.9408H102.454V15.029H105.738C106.421 15.029 106.727 15.1349 106.936 15.4198C107.136 15.7776 107.224 16.1878 107.187 16.5963C107.222 16.9467 107.165 17.3002 107.022 17.6218C106.968 17.7082 106.897 17.7819 106.812 17.8378C106.728 17.8937 106.632 17.9306 106.532 17.9457C107.022 17.9947 107.131 18.1886 107.123 18.9672V19.9398L106.222 19.9408ZM103.347 17.5029H105.473C106.124 17.5029 106.29 17.355 106.29 16.7662C106.29 16.0895 106.156 15.9486 105.491 15.9486H103.348L103.347 17.5029ZM87.911 19.9408L86.7496 16.0795L85.5633 19.9378H84.388L82.7194 15.029H83.6451L84.9652 19.0202L86.2184 15.029H87.2879L88.5271 19.0202L89.8722 15.029H90.7909L89.0933 19.9398L87.911 19.9408ZM74.7128 19.9408V18.7923H75.6444V19.9408H74.7128ZM69.602 19.9408V15.9486H67.7746V15.029H72.3152V15.9486H70.4997V19.9408H69.602ZM63.6285 19.9408V15.029H64.5272V19.9408H63.6285ZM51.1373 19.9408V15.029H54.3587C54.6296 14.9928 54.9052 15.0229 55.1619 15.1167C55.4186 15.2106 55.6488 15.3653 55.8326 15.5677C56.1305 16.1798 56.2456 16.8649 56.1641 17.5409C56.2625 18.228 56.1192 18.928 55.7587 19.521C55.5841 19.682 55.3765 19.8029 55.1504 19.8752C54.9243 19.9475 54.6851 19.9696 54.4496 19.9398L51.1373 19.9408ZM52.036 19.0412H54.2529C54.4927 19.0586 54.7321 19.0021 54.9389 18.8793C55.1636 18.7243 55.2544 18.3505 55.2544 17.5898C55.2544 16.2295 55.0897 15.9556 54.2558 15.9556H52.031L52.036 19.0412ZM43.582 19.9408V15.029H47.7032V15.8926H44.4608V17.0551H47.5404V17.8267H44.4608V19.0782H47.7321V19.9418L43.582 19.9408ZM31.2236 19.9408L30.7762 18.9682H28.0142L27.5798 19.9408H26.5812L28.799 15.029H30.0133L32.1952 19.9398L31.2236 19.9408ZM28.3597 18.1716H30.4567L29.3972 15.8256L28.3597 18.1716ZM21.9807 19.9408L19.0879 15.8796L19.1058 19.9418H18.2401V15.029H19.6291L22.5409 19.1162L22.523 15.029H23.3778V19.9408H21.9807ZM14.2368 19.9408L13.7934 18.9682H11.0273L10.5979 19.9408H9.59136L11.8132 15.029H13.0265L15.2134 19.9398L14.2368 19.9408ZM11.3728 18.1716H13.4639L12.4104 15.8256L11.3728 18.1716ZM5.51616 19.9408L5.55111 15.8996L3.54396 19.9408H2.84495L0.848793 15.8996L0.873757 19.9408H0V15.029H1.38403L3.21143 18.7273L5.03085 15.029H6.39091V19.9408H5.51616Z" fill="white"/>
</svg>
